<svg width="196" height="191" viewBox="0 0 196 191" fill="none" xmlns="http://www.w3.org/2000/svg">
<g clip-path="url(#clip0_1622_126)">
<path d="M124.429 42.9551H71.6153C70.4118 42.9565 69.258 43.4345 68.407 44.2841C67.556 45.1337 67.0772 46.2855 67.0758 47.487V164.669L66.4705 164.853L53.5145 168.814C52.9005 169.001 52.2373 168.937 51.6704 168.636C51.1036 168.336 50.6795 167.823 50.4912 167.21L11.9531 41.5381C11.7655 40.9251 11.8294 40.2628 12.1308 39.6968C12.4321 39.1309 12.9462 38.7075 13.5601 38.5198L33.5252 32.4167L91.405 14.7299L111.37 8.62681C111.674 8.53346 111.993 8.50083 112.31 8.53081C112.626 8.56079 112.934 8.65278 113.214 8.80151C113.495 8.95025 113.744 9.1528 113.946 9.3976C114.148 9.64239 114.3 9.92461 114.393 10.2281L124.244 42.3508L124.429 42.9551Z" fill="#F2F2F2"/>
<path d="M135.953 42.351L124.081 3.63579C123.883 2.99072 123.561 2.39083 123.131 1.8704C122.701 1.34997 122.172 0.919203 121.576 0.602707C120.979 0.286211 120.326 0.0901887 119.653 0.02585C118.981 -0.0384886 118.302 0.0301167 117.656 0.227739L89.5862 8.80527L31.7096 26.4951L3.6398 35.0757C2.33583 35.4754 1.244 36.3753 0.603957 37.5779C-0.036082 38.7804 -0.172035 40.1874 0.225945 41.4899L40.8038 173.803C41.1271 174.854 41.7795 175.774 42.6651 176.428C43.5508 177.083 44.6231 177.436 45.7248 177.437C46.2347 177.438 46.7417 177.361 47.2288 177.211L66.4706 171.331L67.0759 171.144V170.512L66.4706 170.697L47.0503 176.634C45.8993 176.984 44.6562 176.864 43.5935 176.301C42.5309 175.737 41.7355 174.776 41.3819 173.627L0.807136 41.3117C0.631935 40.7427 0.570873 40.1449 0.627444 39.5523C0.684015 38.9598 0.857103 38.3842 1.13681 37.8586C1.41651 37.3329 1.79734 36.8675 2.25747 36.489C2.7176 36.1105 3.248 35.8263 3.81831 35.6527L31.8881 27.0722L89.7648 9.38537L117.835 0.804817C118.267 0.673026 118.717 0.605829 119.169 0.605408C120.14 0.607584 121.084 0.919975 121.864 1.49683C122.644 2.07368 123.218 2.88467 123.503 3.81103L135.321 42.351L135.509 42.9553H136.138L135.953 42.351Z" fill="#3F3D56"/>
<path d="M37.128 38.6187C36.5447 38.6182 35.9769 38.4312 35.5079 38.085C35.0388 37.7388 34.6933 37.2517 34.5219 36.6951L30.6238 23.9838C30.519 23.6424 30.4827 23.2837 30.5168 22.9282C30.551 22.5727 30.6549 22.2275 30.8227 21.9121C30.9905 21.5967 31.2189 21.3175 31.4949 21.0903C31.7708 20.863 32.0889 20.6923 32.4309 20.5878L85.6769 4.31383C86.3677 4.1034 87.1138 4.17517 87.7516 4.51337C88.3894 4.85158 88.8667 5.42859 89.0788 6.11777L92.9769 18.8291C93.1876 19.5187 93.1156 20.2636 92.7768 20.9003C92.4381 21.5369 91.8602 22.0135 91.1699 22.2253L37.9238 38.4993C37.6659 38.5783 37.3977 38.6185 37.128 38.6187Z" fill="#67A961"/>
<path d="M57.5479 13.5824C60.8908 13.5824 63.6007 10.877 63.6007 7.53971C63.6007 4.20245 60.8908 1.49707 57.5479 1.49707C54.205 1.49707 51.4951 4.20245 51.4951 7.53971C51.4951 10.877 54.205 13.5824 57.5479 13.5824Z" fill="#67A961"/>
<path d="M57.5479 11.3662C59.6647 11.3662 61.3807 9.65302 61.3807 7.53977C61.3807 5.42651 59.6647 3.71338 57.5479 3.71338C55.4311 3.71338 53.7151 5.42651 53.7151 7.53977C53.7151 9.65302 55.4311 11.3662 57.5479 11.3662Z" fill="white"/>
<path d="M182.381 175.893H80.0893C79.4073 175.893 78.7535 175.622 78.2712 175.14C77.789 174.659 77.5177 174.006 77.5169 173.325V50.9617C77.5177 50.2808 77.7889 49.628 78.2712 49.1466C78.7535 48.6651 79.4073 48.3943 80.0893 48.3936H182.381C183.063 48.3943 183.717 48.6652 184.199 49.1466C184.682 49.6281 184.953 50.2808 184.954 50.9617V173.325C184.953 174.006 184.682 174.659 184.199 175.14C183.717 175.622 183.063 175.892 182.381 175.893Z" fill="#E6E6E6"/>
<path d="M135.321 42.3511H71.6154C70.2515 42.353 68.944 42.8948 67.9795 43.8576C67.0151 44.8204 66.4725 46.1257 66.4705 47.4873V170.697L67.0758 170.512V47.4873C67.0773 46.2858 67.556 45.1339 68.407 44.2843C69.258 43.4347 70.4119 42.9568 71.6154 42.9553H135.509L135.321 42.3511ZM190.855 42.3511H71.6154C70.2515 42.353 68.944 42.8948 67.9795 43.8576C67.0151 44.8204 66.4725 46.1257 66.4705 47.4873V185.864C66.4724 187.225 67.0151 188.531 67.9795 189.494C68.944 190.456 70.2515 190.998 71.6154 191H190.855C192.219 190.998 193.527 190.456 194.491 189.494C195.455 188.531 195.998 187.225 196 185.864V47.4873C195.998 46.1257 195.455 44.8204 194.491 43.8576C193.527 42.8948 192.219 42.353 190.855 42.3511ZM195.395 185.864C195.393 187.065 194.915 188.217 194.064 189.067C193.213 189.916 192.059 190.394 190.855 190.396H71.6154C70.4119 190.394 69.258 189.916 68.407 189.067C67.556 188.217 67.0773 187.065 67.0758 185.864V47.4873C67.0773 46.2858 67.556 45.1339 68.407 44.2843C69.258 43.4347 70.4119 42.9568 71.6154 42.9553H190.855C192.059 42.9568 193.213 43.4347 194.064 44.2843C194.915 45.1339 195.393 46.2858 195.395 47.4873V185.864Z" fill="#3F3D56"/>
<path d="M159.078 55.6448H103.393C102.67 55.644 101.978 55.3572 101.467 54.8475C100.957 54.3377 100.67 53.6465 100.669 52.9256V39.6318C100.67 38.9109 100.957 38.2197 101.467 37.7099C101.978 37.2002 102.67 36.9134 103.393 36.9126H159.078C159.8 36.9134 160.493 37.2002 161.003 37.7099C161.514 38.2197 161.801 38.9109 161.802 39.6318V52.9256C161.801 53.6465 161.514 54.3377 161.003 54.8475C160.493 55.3572 159.8 55.644 159.078 55.6448Z" fill="#67A961"/>
<path d="M131.235 37.8192C134.578 37.8192 137.288 35.1138 137.288 31.7765C137.288 28.4393 134.578 25.7339 131.235 25.7339C127.892 25.7339 125.182 28.4393 125.182 31.7765C125.182 35.1138 127.892 37.8192 131.235 37.8192Z" fill="#67A961"/>
<path d="M131.235 35.4568C133.271 35.4568 134.922 33.8089 134.922 31.7762C134.922 29.7435 133.271 28.0957 131.235 28.0957C129.199 28.0957 127.549 29.7435 127.549 31.7762C127.549 33.8089 129.199 35.4568 131.235 35.4568Z" fill="white"/>
</g>
<defs>
<clipPath id="clip0_1622_126">
<rect width="196" height="191" fill="white"/>
</clipPath>
</defs>
</svg>
