<svg width="873" height="796" viewBox="0 0 873 796" fill="none" xmlns="http://www.w3.org/2000/svg">
<path fill-rule="evenodd" clip-rule="evenodd" d="M565.599 91.6301C722.275 182.087 813.021 370.846 722.524 527.591C625.738 695.23 410.162 747.825 242.599 651.082C91.8408 564.042 86.3846 361.418 173.464 210.591C253.496 71.9723 427.042 11.6342 565.599 91.6301Z" fill="#FAFBFB"/>
<path fill-rule="evenodd" clip-rule="evenodd" d="M407.379 126C547.772 126 682 217.772 682 358.421C682 508.843 557.528 628 407.379 628C272.288 628 190 493.758 190 358.421C190 234.037 283.221 126 407.379 126Z" fill="white"/>
<path fill-rule="evenodd" clip-rule="evenodd" d="M381.023 35C584.479 35 779 167.722 779 371.13C779 588.674 598.617 761 381.023 761C185.25 761 66.0002 566.857 66.0002 371.13C66.0002 191.245 201.095 35 381.023 35Z" stroke="#ECECEC"/>
</svg>
