<svg width="1003" height="265" viewBox="0 0 1003 265" fill="none" xmlns="http://www.w3.org/2000/svg">
<path d="M993.244 78.5107V84.5052C993.244 113.36 977.14 126.467 957.277 126.467H946.016C945.528 129.2 945.288 132.182 945.288 135.458H939.293C939.293 131.373 939.641 127.666 940.331 124.273C939.641 120.394 939.293 115.131 939.293 108.483C939.293 91.9294 952.712 78.5107 969.266 78.5107C975.26 78.5107 981.255 81.508 993.244 78.5107ZM969.266 84.5052C956.024 84.5052 945.288 95.2414 945.288 108.483C945.288 109.568 945.297 110.614 945.318 111.618C949.076 105.69 954.582 101.005 961.785 96.8899L964.758 102.093C956.201 106.985 950.524 112.542 947.614 120.472H957.277C975.305 120.472 986.863 108.564 987.24 85.6682C983.128 86.0668 979.307 85.812 974.592 85.1047C971.145 84.5862 970.468 84.5052 969.266 84.5052Z" fill="white" fill-opacity="0.03"/>
<path d="M990.942 136.058V142.052C990.942 170.907 974.838 184.014 954.975 184.014H943.715C943.226 186.747 942.986 189.729 942.986 193.005H936.992C936.992 188.92 937.339 185.212 938.029 181.82C937.339 177.941 936.992 172.678 936.992 166.03C936.992 149.476 950.41 136.058 966.964 136.058C972.959 136.058 978.953 139.055 990.942 136.058ZM966.964 142.052C953.722 142.052 942.986 152.788 942.986 166.03C942.986 167.115 942.995 168.161 943.016 169.165C946.775 163.237 952.281 158.552 959.483 154.437L962.456 159.64C953.899 164.531 948.222 170.088 945.312 178.019H954.975C973.004 178.019 984.561 166.111 984.939 143.215C980.826 143.614 977.005 143.359 972.29 142.652C968.843 142.133 968.166 142.052 966.964 142.052Z" fill="white" fill-opacity="0.03"/>
<path d="M993.244 24.9917V30.9862C993.244 59.8407 977.14 72.9477 957.277 72.9477H946.016C945.528 75.6812 945.288 78.6634 945.288 81.9394H939.293C939.293 77.8542 939.641 74.1466 940.331 70.7537C939.641 66.8753 939.293 61.6121 939.293 54.9642C939.293 38.4104 952.712 24.9917 969.266 24.9917C975.26 24.9917 981.255 27.9889 993.244 24.9917ZM969.266 30.9862C956.024 30.9862 945.288 41.7223 945.288 54.9642C945.288 56.0492 945.297 57.0952 945.318 58.0993C949.076 52.1707 954.582 47.486 961.785 43.3708L964.758 48.5741C956.201 53.4656 950.524 59.0225 947.614 66.9532H957.277C975.305 66.9532 986.863 55.0451 987.24 32.1491C983.128 32.5478 979.307 32.293 974.592 31.5856C971.145 31.0671 970.468 30.9862 969.266 30.9862Z" fill="white" fill-opacity="0.03"/>
<path d="M993.244 193.992V199.986C993.244 228.841 977.14 241.948 957.277 241.948H946.016C945.528 244.681 945.288 247.663 945.288 250.939H939.293C939.293 246.854 939.641 243.147 940.331 239.754C939.641 235.875 939.293 230.612 939.293 223.964C939.293 207.41 952.712 193.992 969.266 193.992C975.26 193.992 981.255 196.989 993.244 193.992ZM969.266 199.986C956.024 199.986 945.288 210.722 945.288 223.964C945.288 225.049 945.297 226.095 945.318 227.099C949.076 221.171 954.582 216.486 961.785 212.371L964.758 217.574C956.201 222.466 950.524 228.022 947.614 235.953H957.277C975.305 235.953 986.863 224.045 987.24 201.149C983.128 201.548 979.307 201.293 974.592 200.586C971.145 200.067 970.468 199.986 969.266 199.986Z" fill="white" fill-opacity="0.03"/>
<path d="M919.244 78.5107V84.5052C919.244 113.36 903.14 126.467 883.277 126.467H872.016C871.528 129.2 871.288 132.182 871.288 135.458H865.293C865.293 131.373 865.641 127.666 866.331 124.273C865.641 120.394 865.293 115.131 865.293 108.483C865.293 91.9294 878.712 78.5107 895.266 78.5107C901.26 78.5107 907.255 81.508 919.244 78.5107ZM895.266 84.5052C882.024 84.5052 871.288 95.2414 871.288 108.483C871.288 109.568 871.297 110.614 871.318 111.618C875.076 105.69 880.582 101.005 887.785 96.8899L890.758 102.093C882.201 106.985 876.524 112.542 873.614 120.472H883.277C901.305 120.472 912.863 108.564 913.24 85.6682C909.128 86.0668 905.307 85.812 900.592 85.1047C897.145 84.5862 896.468 84.5052 895.266 84.5052Z" fill="white" fill-opacity="0.03"/>
<path d="M916.942 136.058V142.052C916.942 170.907 900.838 184.014 880.975 184.014H869.715C869.226 186.747 868.986 189.729 868.986 193.005H862.992C862.992 188.92 863.339 185.212 864.029 181.82C863.339 177.941 862.992 172.678 862.992 166.03C862.992 149.476 876.41 136.058 892.964 136.058C898.959 136.058 904.953 139.055 916.942 136.058ZM892.964 142.052C879.722 142.052 868.986 152.788 868.986 166.03C868.986 167.115 868.995 168.161 869.016 169.165C872.775 163.237 878.281 158.552 885.483 154.437L888.456 159.64C879.899 164.531 874.222 170.088 871.312 178.019H880.975C899.004 178.019 910.561 166.111 910.939 143.215C906.826 143.614 903.005 143.359 898.29 142.652C894.843 142.133 894.166 142.052 892.964 142.052Z" fill="white" fill-opacity="0.03"/>
<path d="M919.244 24.9917V30.9862C919.244 59.8407 903.14 72.9477 883.277 72.9477H872.016C871.528 75.6812 871.288 78.6634 871.288 81.9394H865.293C865.293 77.8542 865.641 74.1466 866.331 70.7537C865.641 66.8753 865.293 61.6121 865.293 54.9642C865.293 38.4104 878.712 24.9917 895.266 24.9917C901.26 24.9917 907.255 27.9889 919.244 24.9917ZM895.266 30.9862C882.024 30.9862 871.288 41.7223 871.288 54.9642C871.288 56.0492 871.297 57.0952 871.318 58.0993C875.076 52.1707 880.582 47.486 887.785 43.3708L890.758 48.5741C882.201 53.4656 876.524 59.0225 873.614 66.9532H883.277C901.305 66.9532 912.863 55.0451 913.24 32.1491C909.128 32.5478 905.307 32.293 900.592 31.5856C897.145 31.0671 896.468 30.9862 895.266 30.9862Z" fill="white" fill-opacity="0.03"/>
<path d="M919.244 193.992V199.986C919.244 228.841 903.14 241.948 883.277 241.948H872.016C871.528 244.681 871.288 247.663 871.288 250.939H865.293C865.293 246.854 865.641 243.147 866.331 239.754C865.641 235.875 865.293 230.612 865.293 223.964C865.293 207.41 878.712 193.992 895.266 193.992C901.26 193.992 907.255 196.989 919.244 193.992ZM895.266 199.986C882.024 199.986 871.288 210.722 871.288 223.964C871.288 225.049 871.297 226.095 871.318 227.099C875.076 221.171 880.582 216.486 887.785 212.371L890.758 217.574C882.201 222.466 876.524 228.022 873.614 235.953H883.277C901.305 235.953 912.863 224.045 913.24 201.149C909.128 201.548 905.307 201.293 900.592 200.586C897.145 200.067 896.468 199.986 895.266 199.986Z" fill="white" fill-opacity="0.03"/>
<path d="M844.244 78.5107V84.5052C844.244 113.36 828.14 126.467 808.277 126.467H797.016C796.528 129.2 796.288 132.182 796.288 135.458H790.293C790.293 131.373 790.641 127.666 791.331 124.273C790.641 120.394 790.293 115.131 790.293 108.483C790.293 91.9294 803.712 78.5107 820.266 78.5107C826.26 78.5107 832.255 81.508 844.244 78.5107ZM820.266 84.5052C807.024 84.5052 796.288 95.2414 796.288 108.483C796.288 109.568 796.297 110.614 796.318 111.618C800.076 105.69 805.582 101.005 812.785 96.8899L815.758 102.093C807.201 106.985 801.524 112.542 798.614 120.472H808.277C826.305 120.472 837.863 108.564 838.24 85.6682C834.128 86.0668 830.307 85.812 825.592 85.1047C822.145 84.5862 821.468 84.5052 820.266 84.5052Z" fill="white" fill-opacity="0.03"/>
<path d="M841.942 136.058V142.052C841.942 170.907 825.838 184.014 805.975 184.014H794.715C794.226 186.747 793.986 189.729 793.986 193.005H787.992C787.992 188.92 788.339 185.212 789.029 181.82C788.339 177.941 787.992 172.678 787.992 166.03C787.992 149.476 801.41 136.058 817.964 136.058C823.959 136.058 829.953 139.055 841.942 136.058ZM817.964 142.052C804.722 142.052 793.986 152.788 793.986 166.03C793.986 167.115 793.995 168.161 794.016 169.165C797.775 163.237 803.281 158.552 810.483 154.437L813.456 159.64C804.899 164.531 799.222 170.088 796.312 178.019H805.975C824.004 178.019 835.561 166.111 835.939 143.215C831.826 143.614 828.005 143.359 823.29 142.652C819.843 142.133 819.166 142.052 817.964 142.052Z" fill="white" fill-opacity="0.03"/>
<path d="M844.244 24.9917V30.9862C844.244 59.8407 828.14 72.9477 808.277 72.9477H797.016C796.528 75.6812 796.288 78.6634 796.288 81.9394H790.293C790.293 77.8542 790.641 74.1466 791.331 70.7537C790.641 66.8753 790.293 61.6121 790.293 54.9642C790.293 38.4104 803.712 24.9917 820.266 24.9917C826.26 24.9917 832.255 27.9889 844.244 24.9917ZM820.266 30.9862C807.024 30.9862 796.288 41.7223 796.288 54.9642C796.288 56.0492 796.297 57.0952 796.318 58.0993C800.076 52.1707 805.582 47.486 812.785 43.3708L815.758 48.5741C807.201 53.4656 801.524 59.0225 798.614 66.9532H808.277C826.305 66.9532 837.863 55.0451 838.24 32.1491C834.128 32.5478 830.307 32.293 825.592 31.5856C822.145 31.0671 821.468 30.9862 820.266 30.9862Z" fill="white" fill-opacity="0.03"/>
<path d="M844.244 193.992V199.986C844.244 228.841 828.14 241.948 808.277 241.948H797.016C796.528 244.681 796.288 247.663 796.288 250.939H790.293C790.293 246.854 790.641 243.147 791.331 239.754C790.641 235.875 790.293 230.612 790.293 223.964C790.293 207.41 803.712 193.992 820.266 193.992C826.26 193.992 832.255 196.989 844.244 193.992ZM820.266 199.986C807.024 199.986 796.288 210.722 796.288 223.964C796.288 225.049 796.297 226.095 796.318 227.099C800.076 221.171 805.582 216.486 812.785 212.371L815.758 217.574C807.201 222.466 801.524 228.022 798.614 235.953H808.277C826.305 235.953 837.863 224.045 838.24 201.149C834.128 201.548 830.307 201.293 825.592 200.586C822.145 200.067 821.468 199.986 820.266 199.986Z" fill="white" fill-opacity="0.03"/>
<path d="M769.244 78.5107V84.5052C769.244 113.36 753.14 126.467 733.277 126.467H722.016C721.528 129.2 721.288 132.182 721.288 135.458H715.293C715.293 131.373 715.641 127.666 716.331 124.273C715.641 120.394 715.293 115.131 715.293 108.483C715.293 91.9294 728.712 78.5107 745.266 78.5107C751.26 78.5107 757.255 81.508 769.244 78.5107ZM745.266 84.5052C732.024 84.5052 721.288 95.2414 721.288 108.483C721.288 109.568 721.297 110.614 721.318 111.618C725.076 105.69 730.582 101.005 737.785 96.8899L740.758 102.093C732.201 106.985 726.524 112.542 723.614 120.472H733.277C751.305 120.472 762.863 108.564 763.24 85.6682C759.128 86.0668 755.307 85.812 750.592 85.1047C747.145 84.5862 746.468 84.5052 745.266 84.5052Z" fill="white" fill-opacity="0.03"/>
<path d="M766.942 136.058V142.052C766.942 170.907 750.838 184.014 730.975 184.014H719.715C719.226 186.747 718.986 189.729 718.986 193.005H712.992C712.992 188.92 713.339 185.212 714.029 181.82C713.339 177.941 712.992 172.678 712.992 166.03C712.992 149.476 726.41 136.058 742.964 136.058C748.959 136.058 754.953 139.055 766.942 136.058ZM742.964 142.052C729.722 142.052 718.986 152.788 718.986 166.03C718.986 167.115 718.995 168.161 719.016 169.165C722.775 163.237 728.281 158.552 735.483 154.437L738.456 159.64C729.899 164.531 724.222 170.088 721.312 178.019H730.975C749.004 178.019 760.561 166.111 760.939 143.215C756.826 143.614 753.005 143.359 748.29 142.652C744.843 142.133 744.166 142.052 742.964 142.052Z" fill="white" fill-opacity="0.03"/>
<path d="M769.244 24.9917V30.9862C769.244 59.8407 753.14 72.9477 733.277 72.9477H722.016C721.528 75.6812 721.288 78.6634 721.288 81.9394H715.293C715.293 77.8542 715.641 74.1466 716.331 70.7537C715.641 66.8753 715.293 61.6121 715.293 54.9642C715.293 38.4104 728.712 24.9917 745.266 24.9917C751.26 24.9917 757.255 27.9889 769.244 24.9917ZM745.266 30.9862C732.024 30.9862 721.288 41.7223 721.288 54.9642C721.288 56.0492 721.297 57.0952 721.318 58.0993C725.076 52.1707 730.582 47.486 737.785 43.3708L740.758 48.5741C732.201 53.4656 726.524 59.0225 723.614 66.9532H733.277C751.305 66.9532 762.863 55.0451 763.24 32.1491C759.128 32.5478 755.307 32.293 750.592 31.5856C747.145 31.0671 746.468 30.9862 745.266 30.9862Z" fill="white" fill-opacity="0.03"/>
<path d="M769.244 193.992V199.986C769.244 228.841 753.14 241.948 733.277 241.948H722.016C721.528 244.681 721.288 247.663 721.288 250.939H715.293C715.293 246.854 715.641 243.147 716.331 239.754C715.641 235.875 715.293 230.612 715.293 223.964C715.293 207.41 728.712 193.992 745.266 193.992C751.26 193.992 757.255 196.989 769.244 193.992ZM745.266 199.986C732.024 199.986 721.288 210.722 721.288 223.964C721.288 225.049 721.297 226.095 721.318 227.099C725.076 221.171 730.582 216.486 737.785 212.371L740.758 217.574C732.201 222.466 726.524 228.022 723.614 235.953H733.277C751.305 235.953 762.863 224.045 763.24 201.149C759.128 201.548 755.307 201.293 750.592 200.586C747.145 200.067 746.468 199.986 745.266 199.986Z" fill="white" fill-opacity="0.03"/>
<path d="M697.244 78.5107V84.5052C697.244 113.36 681.14 126.467 661.277 126.467H650.016C649.528 129.2 649.288 132.182 649.288 135.458H643.293C643.293 131.373 643.641 127.666 644.331 124.273C643.641 120.394 643.293 115.131 643.293 108.483C643.293 91.9294 656.712 78.5107 673.266 78.5107C679.26 78.5107 685.255 81.508 697.244 78.5107ZM673.266 84.5052C660.024 84.5052 649.288 95.2414 649.288 108.483C649.288 109.568 649.297 110.614 649.318 111.618C653.076 105.69 658.582 101.005 665.785 96.8899L668.758 102.093C660.201 106.985 654.524 112.542 651.614 120.472H661.277C679.305 120.472 690.863 108.564 691.24 85.6682C687.128 86.0668 683.307 85.812 678.592 85.1047C675.145 84.5862 674.468 84.5052 673.266 84.5052Z" fill="white" fill-opacity="0.03"/>
<path d="M694.942 136.058V142.052C694.942 170.907 678.838 184.014 658.975 184.014H647.715C647.226 186.747 646.986 189.729 646.986 193.005H640.992C640.992 188.92 641.339 185.212 642.029 181.82C641.339 177.941 640.992 172.678 640.992 166.03C640.992 149.476 654.41 136.058 670.964 136.058C676.959 136.058 682.953 139.055 694.942 136.058ZM670.964 142.052C657.722 142.052 646.986 152.788 646.986 166.03C646.986 167.115 646.995 168.161 647.016 169.165C650.775 163.237 656.281 158.552 663.483 154.437L666.456 159.64C657.899 164.531 652.222 170.088 649.312 178.019H658.975C677.004 178.019 688.561 166.111 688.939 143.215C684.826 143.614 681.005 143.359 676.29 142.652C672.843 142.133 672.166 142.052 670.964 142.052Z" fill="white" fill-opacity="0.03"/>
<path d="M697.244 24.9917V30.9862C697.244 59.8407 681.14 72.9477 661.277 72.9477H650.016C649.528 75.6812 649.288 78.6634 649.288 81.9394H643.293C643.293 77.8542 643.641 74.1466 644.331 70.7537C643.641 66.8753 643.293 61.6121 643.293 54.9642C643.293 38.4104 656.712 24.9917 673.266 24.9917C679.26 24.9917 685.255 27.9889 697.244 24.9917ZM673.266 30.9862C660.024 30.9862 649.288 41.7223 649.288 54.9642C649.288 56.0492 649.297 57.0952 649.318 58.0993C653.076 52.1707 658.582 47.486 665.785 43.3708L668.758 48.5741C660.201 53.4656 654.524 59.0225 651.614 66.9532H661.277C679.305 66.9532 690.863 55.0451 691.24 32.1491C687.128 32.5478 683.307 32.293 678.592 31.5856C675.145 31.0671 674.468 30.9862 673.266 30.9862Z" fill="white" fill-opacity="0.03"/>
<path d="M697.244 193.992V199.986C697.244 228.841 681.14 241.948 661.277 241.948H650.016C649.528 244.681 649.288 247.663 649.288 250.939H643.293C643.293 246.854 643.641 243.147 644.331 239.754C643.641 235.875 643.293 230.612 643.293 223.964C643.293 207.41 656.712 193.992 673.266 193.992C679.26 193.992 685.255 196.989 697.244 193.992ZM673.266 199.986C660.024 199.986 649.288 210.722 649.288 223.964C649.288 225.049 649.297 226.095 649.318 227.099C653.076 221.171 658.582 216.486 665.785 212.371L668.758 217.574C660.201 222.466 654.524 228.022 651.614 235.953H661.277C679.305 235.953 690.863 224.045 691.24 201.149C687.128 201.548 683.307 201.293 678.592 200.586C675.145 200.067 674.468 199.986 673.266 199.986Z" fill="white" fill-opacity="0.03"/>
<path d="M624.244 78.5107V84.5052C624.244 113.36 608.14 126.467 588.277 126.467H577.016C576.528 129.2 576.288 132.182 576.288 135.458H570.293C570.293 131.373 570.641 127.666 571.331 124.273C570.641 120.394 570.293 115.131 570.293 108.483C570.293 91.9294 583.712 78.5107 600.266 78.5107C606.26 78.5107 612.255 81.508 624.244 78.5107ZM600.266 84.5052C587.024 84.5052 576.288 95.2414 576.288 108.483C576.288 109.568 576.297 110.614 576.318 111.618C580.076 105.69 585.582 101.005 592.785 96.8899L595.758 102.093C587.201 106.985 581.524 112.542 578.614 120.472H588.277C606.305 120.472 617.863 108.564 618.24 85.6682C614.128 86.0668 610.307 85.812 605.592 85.1047C602.145 84.5862 601.468 84.5052 600.266 84.5052Z" fill="white" fill-opacity="0.03"/>
<path d="M621.942 136.058V142.052C621.942 170.907 605.838 184.014 585.975 184.014H574.715C574.226 186.747 573.986 189.729 573.986 193.005H567.992C567.992 188.92 568.339 185.212 569.029 181.82C568.339 177.941 567.992 172.678 567.992 166.03C567.992 149.476 581.41 136.058 597.964 136.058C603.959 136.058 609.953 139.055 621.942 136.058ZM597.964 142.052C584.722 142.052 573.986 152.788 573.986 166.03C573.986 167.115 573.995 168.161 574.016 169.165C577.775 163.237 583.281 158.552 590.483 154.437L593.456 159.64C584.899 164.531 579.222 170.088 576.312 178.019H585.975C604.004 178.019 615.561 166.111 615.939 143.215C611.826 143.614 608.005 143.359 603.29 142.652C599.843 142.133 599.166 142.052 597.964 142.052Z" fill="white" fill-opacity="0.03"/>
<path d="M624.244 24.9917V30.9862C624.244 59.8407 608.14 72.9477 588.277 72.9477H577.016C576.528 75.6812 576.288 78.6634 576.288 81.9394H570.293C570.293 77.8542 570.641 74.1466 571.331 70.7537C570.641 66.8753 570.293 61.6121 570.293 54.9642C570.293 38.4104 583.712 24.9917 600.266 24.9917C606.26 24.9917 612.255 27.9889 624.244 24.9917ZM600.266 30.9862C587.024 30.9862 576.288 41.7223 576.288 54.9642C576.288 56.0492 576.297 57.0952 576.318 58.0993C580.076 52.1707 585.582 47.486 592.785 43.3708L595.758 48.5741C587.201 53.4656 581.524 59.0225 578.614 66.9532H588.277C606.305 66.9532 617.863 55.0451 618.24 32.1491C614.128 32.5478 610.307 32.293 605.592 31.5856C602.145 31.0671 601.468 30.9862 600.266 30.9862Z" fill="white" fill-opacity="0.03"/>
<path d="M624.244 193.992V199.986C624.244 228.841 608.14 241.948 588.277 241.948H577.016C576.528 244.681 576.288 247.663 576.288 250.939H570.293C570.293 246.854 570.641 243.147 571.331 239.754C570.641 235.875 570.293 230.612 570.293 223.964C570.293 207.41 583.712 193.992 600.266 193.992C606.26 193.992 612.255 196.989 624.244 193.992ZM600.266 199.986C587.024 199.986 576.288 210.722 576.288 223.964C576.288 225.049 576.297 226.095 576.318 227.099C580.076 221.171 585.582 216.486 592.785 212.371L595.758 217.574C587.201 222.466 581.524 228.022 578.614 235.953H588.277C606.305 235.953 617.863 224.045 618.24 201.149C614.128 201.548 610.307 201.293 605.592 200.586C602.145 200.067 601.468 199.986 600.266 199.986Z" fill="white" fill-opacity="0.03"/>
<path d="M550.244 77.5107V83.5052C550.244 112.36 534.14 125.467 514.277 125.467H503.016C502.528 128.2 502.288 131.182 502.288 134.458H496.293C496.293 130.373 496.641 126.666 497.331 123.273C496.641 119.394 496.293 114.131 496.293 107.483C496.293 90.9294 509.712 77.5107 526.266 77.5107C532.26 77.5107 538.255 80.508 550.244 77.5107ZM526.266 83.5052C513.024 83.5052 502.288 94.2414 502.288 107.483C502.288 108.568 502.297 109.614 502.318 110.618C506.076 104.69 511.582 100.005 518.785 95.8899L521.758 101.093C513.201 105.985 507.524 111.542 504.614 119.472H514.277C532.305 119.472 543.863 107.564 544.24 84.6682C540.128 85.0668 536.307 84.812 531.592 84.1047C528.145 83.5862 527.468 83.5052 526.266 83.5052Z" fill="white" fill-opacity="0.03"/>
<path d="M547.942 135.058V141.052C547.942 169.907 531.838 183.014 511.975 183.014H500.715C500.226 185.747 499.986 188.729 499.986 192.005H493.992C493.992 187.92 494.339 184.212 495.029 180.82C494.339 176.941 493.992 171.678 493.992 165.03C493.992 148.476 507.41 135.058 523.964 135.058C529.959 135.058 535.953 138.055 547.942 135.058ZM523.964 141.052C510.722 141.052 499.986 151.788 499.986 165.03C499.986 166.115 499.995 167.161 500.016 168.165C503.775 162.237 509.281 157.552 516.483 153.437L519.456 158.64C510.899 163.531 505.222 169.088 502.312 177.019H511.975C530.004 177.019 541.561 165.111 541.939 142.215C537.826 142.614 534.005 142.359 529.29 141.652C525.843 141.133 525.166 141.052 523.964 141.052Z" fill="white" fill-opacity="0.03"/>
<path d="M550.244 23.9917V29.9862C550.244 58.8407 534.14 71.9477 514.277 71.9477H503.016C502.528 74.6812 502.288 77.6634 502.288 80.9394H496.293C496.293 76.8542 496.641 73.1466 497.331 69.7537C496.641 65.8753 496.293 60.6121 496.293 53.9642C496.293 37.4104 509.712 23.9917 526.266 23.9917C532.26 23.9917 538.255 26.9889 550.244 23.9917ZM526.266 29.9862C513.024 29.9862 502.288 40.7223 502.288 53.9642C502.288 55.0492 502.297 56.0952 502.318 57.0993C506.076 51.1707 511.582 46.486 518.785 42.3708L521.758 47.5741C513.201 52.4656 507.524 58.0225 504.614 65.9532H514.277C532.305 65.9532 543.863 54.0451 544.24 31.1491C540.128 31.5478 536.307 31.293 531.592 30.5856C528.145 30.0671 527.468 29.9862 526.266 29.9862Z" fill="white" fill-opacity="0.03"/>
<path d="M550.244 192.992V198.986C550.244 227.841 534.14 240.948 514.277 240.948H503.016C502.528 243.681 502.288 246.663 502.288 249.939H496.293C496.293 245.854 496.641 242.147 497.331 238.754C496.641 234.875 496.293 229.612 496.293 222.964C496.293 206.41 509.712 192.992 526.266 192.992C532.26 192.992 538.255 195.989 550.244 192.992ZM526.266 198.986C513.024 198.986 502.288 209.722 502.288 222.964C502.288 224.049 502.297 225.095 502.318 226.099C506.076 220.171 511.582 215.486 518.785 211.371L521.758 216.574C513.201 221.466 507.524 227.022 504.614 234.953H514.277C532.305 234.953 543.863 223.045 544.24 200.149C540.128 200.548 536.307 200.293 531.592 199.586C528.145 199.067 527.468 198.986 526.266 198.986Z" fill="white" fill-opacity="0.03"/>
<path d="M478.244 62.5107V68.5052C478.244 97.3598 462.14 110.467 442.277 110.467H431.016C430.528 113.2 430.288 116.182 430.288 119.458H424.293C424.293 115.373 424.641 111.666 425.331 108.273C424.641 104.394 424.293 99.1311 424.293 92.4832C424.293 75.9294 437.712 62.5107 454.266 62.5107C460.26 62.5107 466.255 65.508 478.244 62.5107ZM454.266 68.5052C441.024 68.5052 430.288 79.2414 430.288 92.4832C430.288 93.5682 430.297 94.6143 430.318 95.6184C434.076 89.6898 439.582 85.0051 446.785 80.8899L449.758 86.0931C441.201 90.9846 435.524 96.5415 432.614 104.472H442.277C460.305 104.472 471.863 92.5642 472.24 69.6682C468.128 70.0668 464.307 69.812 459.592 69.1047C456.145 68.5862 455.468 68.5052 454.266 68.5052Z" fill="white" fill-opacity="0.03"/>
<path d="M475.942 120.058V126.052C475.942 154.907 459.838 168.014 439.975 168.014H428.715C428.226 170.747 427.986 173.729 427.986 177.005H421.992C421.992 172.92 422.339 169.212 423.029 165.82C422.339 161.941 421.992 156.678 421.992 150.03C421.992 133.476 435.41 120.058 451.964 120.058C457.959 120.058 463.953 123.055 475.942 120.058ZM451.964 126.052C438.722 126.052 427.986 136.788 427.986 150.03C427.986 151.115 427.995 152.161 428.016 153.165C431.775 147.237 437.281 142.552 444.483 138.437L447.456 143.64C438.899 148.531 433.222 154.088 430.312 162.019H439.975C458.004 162.019 469.561 150.111 469.939 127.215C465.826 127.614 462.005 127.359 457.29 126.652C453.843 126.133 453.166 126.052 451.964 126.052Z" fill="white" fill-opacity="0.03"/>
<path d="M478.244 8.9917V14.9862C478.244 43.8407 462.14 56.9477 442.277 56.9477H431.016C430.528 59.6812 430.288 62.6634 430.288 65.9394H424.293C424.293 61.8542 424.641 58.1466 425.331 54.7537C424.641 50.8753 424.293 45.6121 424.293 38.9642C424.293 22.4104 437.712 8.9917 454.266 8.9917C460.26 8.9917 466.255 11.9889 478.244 8.9917ZM454.266 14.9862C441.024 14.9862 430.288 25.7223 430.288 38.9642C430.288 40.0492 430.297 41.0952 430.318 42.0993C434.076 36.1707 439.582 31.486 446.785 27.3708L449.758 32.5741C441.201 37.4656 435.524 43.0225 432.614 50.9532H442.277C460.305 50.9532 471.863 39.0451 472.24 16.1491C468.128 16.5478 464.307 16.293 459.592 15.5856C456.145 15.0671 455.468 14.9862 454.266 14.9862Z" fill="white" fill-opacity="0.03"/>
<path d="M478.244 177.992V183.986C478.244 212.841 462.14 225.948 442.277 225.948H431.016C430.528 228.681 430.288 231.663 430.288 234.939H424.293C424.293 230.854 424.641 227.147 425.331 223.754C424.641 219.875 424.293 214.612 424.293 207.964C424.293 191.41 437.712 177.992 454.266 177.992C460.26 177.992 466.255 180.989 478.244 177.992ZM454.266 183.986C441.024 183.986 430.288 194.722 430.288 207.964C430.288 209.049 430.297 210.095 430.318 211.099C434.076 205.171 439.582 200.486 446.785 196.371L449.758 201.574C441.201 206.466 435.524 212.022 432.614 219.953H442.277C460.305 219.953 471.863 208.045 472.24 185.149C468.128 185.548 464.307 185.293 459.592 184.586C456.145 184.067 455.468 183.986 454.266 183.986Z" fill="white" fill-opacity="0.03"/>
<path d="M406.244 62.5107V68.5052C406.244 97.3598 390.14 110.467 370.277 110.467H359.016C358.528 113.2 358.288 116.182 358.288 119.458H352.293C352.293 115.373 352.641 111.666 353.331 108.273C352.641 104.394 352.293 99.1311 352.293 92.4832C352.293 75.9294 365.712 62.5107 382.266 62.5107C388.26 62.5107 394.255 65.508 406.244 62.5107ZM382.266 68.5052C369.024 68.5052 358.288 79.2414 358.288 92.4832C358.288 93.5682 358.297 94.6143 358.318 95.6184C362.076 89.6898 367.582 85.0051 374.785 80.8899L377.758 86.0931C369.201 90.9846 363.524 96.5415 360.614 104.472H370.277C388.305 104.472 399.863 92.5642 400.24 69.6682C396.128 70.0668 392.307 69.812 387.592 69.1047C384.145 68.5862 383.468 68.5052 382.266 68.5052Z" fill="white" fill-opacity="0.03"/>
<path d="M403.942 120.058V126.052C403.942 154.907 387.838 168.014 367.975 168.014H356.715C356.226 170.747 355.986 173.729 355.986 177.005H349.992C349.992 172.92 350.339 169.212 351.029 165.82C350.339 161.941 349.992 156.678 349.992 150.03C349.992 133.476 363.41 120.058 379.964 120.058C385.959 120.058 391.953 123.055 403.942 120.058ZM379.964 126.052C366.722 126.052 355.986 136.788 355.986 150.03C355.986 151.115 355.995 152.161 356.016 153.165C359.775 147.237 365.281 142.552 372.483 138.437L375.456 143.64C366.899 148.531 361.222 154.088 358.312 162.019H367.975C386.004 162.019 397.561 150.111 397.939 127.215C393.826 127.614 390.005 127.359 385.29 126.652C381.843 126.133 381.166 126.052 379.964 126.052Z" fill="white" fill-opacity="0.03"/>
<path d="M406.244 8.9917V14.9862C406.244 43.8407 390.14 56.9477 370.277 56.9477H359.016C358.528 59.6812 358.288 62.6634 358.288 65.9394H352.293C352.293 61.8542 352.641 58.1466 353.331 54.7537C352.641 50.8753 352.293 45.6121 352.293 38.9642C352.293 22.4104 365.712 8.9917 382.266 8.9917C388.26 8.9917 394.255 11.9889 406.244 8.9917ZM382.266 14.9862C369.024 14.9862 358.288 25.7223 358.288 38.9642C358.288 40.0492 358.297 41.0952 358.318 42.0993C362.076 36.1707 367.582 31.486 374.785 27.3708L377.758 32.5741C369.201 37.4656 363.524 43.0225 360.614 50.9532H370.277C388.305 50.9532 399.863 39.0451 400.24 16.1491C396.128 16.5478 392.307 16.293 387.592 15.5856C384.145 15.0671 383.468 14.9862 382.266 14.9862Z" fill="white" fill-opacity="0.03"/>
<path d="M406.244 177.992V183.986C406.244 212.841 390.14 225.948 370.277 225.948H359.016C358.528 228.681 358.288 231.663 358.288 234.939H352.293C352.293 230.854 352.641 227.147 353.331 223.754C352.641 219.875 352.293 214.612 352.293 207.964C352.293 191.41 365.712 177.992 382.266 177.992C388.26 177.992 394.255 180.989 406.244 177.992ZM382.266 183.986C369.024 183.986 358.288 194.722 358.288 207.964C358.288 209.049 358.297 210.095 358.318 211.099C362.076 205.171 367.582 200.486 374.785 196.371L377.758 201.574C369.201 206.466 363.524 212.022 360.614 219.953H370.277C388.305 219.953 399.863 208.045 400.24 185.149C396.128 185.548 392.307 185.293 387.592 184.586C384.145 184.067 383.468 183.986 382.266 183.986Z" fill="white" fill-opacity="0.03"/>
<path d="M332.244 70.5107V76.5052C332.244 105.36 316.14 118.467 296.277 118.467H285.016C284.528 121.2 284.288 124.182 284.288 127.458H278.293C278.293 123.373 278.641 119.666 279.331 116.273C278.641 112.394 278.293 107.131 278.293 100.483C278.293 83.9294 291.712 70.5107 308.266 70.5107C314.26 70.5107 320.255 73.508 332.244 70.5107ZM308.266 76.5052C295.024 76.5052 284.288 87.2414 284.288 100.483C284.288 101.568 284.297 102.614 284.318 103.618C288.076 97.6898 293.582 93.0051 300.785 88.8899L303.758 94.0931C295.201 98.9846 289.524 104.542 286.614 112.472H296.277C314.305 112.472 325.863 100.564 326.24 77.6682C322.128 78.0668 318.307 77.812 313.592 77.1047C310.145 76.5862 309.468 76.5052 308.266 76.5052Z" fill="white" fill-opacity="0.03"/>
<path d="M329.942 128.058V134.052C329.942 162.907 313.838 176.014 293.975 176.014H282.715C282.226 178.747 281.986 181.729 281.986 185.005H275.992C275.992 180.92 276.339 177.212 277.029 173.82C276.339 169.941 275.992 164.678 275.992 158.03C275.992 141.476 289.41 128.058 305.964 128.058C311.959 128.058 317.953 131.055 329.942 128.058ZM305.964 134.052C292.722 134.052 281.986 144.788 281.986 158.03C281.986 159.115 281.995 160.161 282.016 161.165C285.775 155.237 291.281 150.552 298.483 146.437L301.456 151.64C292.899 156.531 287.222 162.088 284.312 170.019H293.975C312.004 170.019 323.561 158.111 323.939 135.215C319.826 135.614 316.005 135.359 311.29 134.652C307.843 134.133 307.166 134.052 305.964 134.052Z" fill="white" fill-opacity="0.03"/>
<path d="M332.244 16.9917V22.9862C332.244 51.8407 316.14 64.9477 296.277 64.9477H285.016C284.528 67.6812 284.288 70.6634 284.288 73.9394H278.293C278.293 69.8542 278.641 66.1466 279.331 62.7537C278.641 58.8753 278.293 53.6121 278.293 46.9642C278.293 30.4104 291.712 16.9917 308.266 16.9917C314.26 16.9917 320.255 19.9889 332.244 16.9917ZM308.266 22.9862C295.024 22.9862 284.288 33.7223 284.288 46.9642C284.288 48.0492 284.297 49.0952 284.318 50.0993C288.076 44.1707 293.582 39.486 300.785 35.3708L303.758 40.5741C295.201 45.4656 289.524 51.0225 286.614 58.9532H296.277C314.305 58.9532 325.863 47.0451 326.24 24.1491C322.128 24.5478 318.307 24.293 313.592 23.5856C310.145 23.0671 309.468 22.9862 308.266 22.9862Z" fill="white" fill-opacity="0.03"/>
<path d="M332.244 185.992V191.986C332.244 220.841 316.14 233.948 296.277 233.948H285.016C284.528 236.681 284.288 239.663 284.288 242.939H278.293C278.293 238.854 278.641 235.147 279.331 231.754C278.641 227.875 278.293 222.612 278.293 215.964C278.293 199.41 291.712 185.992 308.266 185.992C314.26 185.992 320.255 188.989 332.244 185.992ZM308.266 191.986C295.024 191.986 284.288 202.722 284.288 215.964C284.288 217.049 284.297 218.095 284.318 219.099C288.076 213.171 293.582 208.486 300.785 204.371L303.758 209.574C295.201 214.466 289.524 220.022 286.614 227.953H296.277C314.305 227.953 325.863 216.045 326.24 193.149C322.128 193.548 318.307 193.293 313.592 192.586C310.145 192.067 309.468 191.986 308.266 191.986Z" fill="white" fill-opacity="0.03"/>
<path d="M260.942 126.058V132.052C260.942 160.907 244.838 174.014 224.975 174.014H213.715C213.226 176.747 212.986 179.729 212.986 183.005H206.992C206.992 178.92 207.339 175.212 208.029 171.82C207.339 167.941 206.992 162.678 206.992 156.03C206.992 139.476 220.41 126.058 236.964 126.058C242.959 126.058 248.953 129.055 260.942 126.058ZM236.964 132.052C223.722 132.052 212.986 142.788 212.986 156.03C212.986 157.115 212.995 158.161 213.016 159.165C216.775 153.237 222.281 148.552 229.483 144.437L232.456 149.64C223.899 154.531 218.222 160.088 215.312 168.019H224.975C243.004 168.019 254.561 156.111 254.939 133.215C250.826 133.614 247.005 133.359 242.29 132.652C238.843 132.133 238.166 132.052 236.964 132.052Z" fill="white" fill-opacity="0.03"/>
<path d="M263.244 14.9917V20.9862C263.244 49.8407 247.14 62.9477 227.277 62.9477H216.016C215.528 65.6812 215.288 68.6634 215.288 71.9394H209.293C209.293 67.8542 209.641 64.1466 210.331 60.7537C209.641 56.8753 209.293 51.6121 209.293 44.9642C209.293 28.4104 222.712 14.9917 239.266 14.9917C245.26 14.9917 251.255 17.9889 263.244 14.9917ZM239.266 20.9862C226.024 20.9862 215.288 31.7223 215.288 44.9642C215.288 46.0492 215.297 47.0952 215.318 48.0993C219.076 42.1707 224.582 37.486 231.785 33.3708L234.758 38.5741C226.201 43.4656 220.524 49.0225 217.614 56.9532H227.277C245.305 56.9532 256.863 45.0451 257.24 22.1491C253.128 22.5478 249.307 22.293 244.592 21.5856C241.145 21.0671 240.468 20.9862 239.266 20.9862Z" fill="white" fill-opacity="0.03"/>
<path d="M263.244 177.992V183.986C263.244 212.841 247.14 225.948 227.277 225.948H216.016C215.528 228.681 215.288 231.663 215.288 234.939H209.293C209.293 230.854 209.641 227.147 210.331 223.754C209.641 219.875 209.293 214.612 209.293 207.964C209.293 191.41 222.712 177.992 239.266 177.992C245.26 177.992 251.255 180.989 263.244 177.992ZM239.266 183.986C226.024 183.986 215.288 194.722 215.288 207.964C215.288 209.049 215.297 210.095 215.318 211.099C219.076 205.171 224.582 200.486 231.785 196.371L234.758 201.574C226.201 206.466 220.524 212.022 217.614 219.953H227.277C245.305 219.953 256.863 208.045 257.24 185.149C253.128 185.548 249.307 185.293 244.592 184.586C241.145 184.067 240.468 183.986 239.266 183.986Z" fill="white" fill-opacity="0.03"/>
<path d="M196.942 117.058V123.052C196.942 151.907 180.838 165.014 160.975 165.014H149.715C149.226 167.747 148.986 170.729 148.986 174.005H142.992C142.992 169.92 143.339 166.212 144.029 162.82C143.339 158.941 142.992 153.678 142.992 147.03C142.992 130.476 156.41 117.058 172.964 117.058C178.959 117.058 184.953 120.055 196.942 117.058ZM172.964 123.052C159.722 123.052 148.986 133.788 148.986 147.03C148.986 148.115 148.995 149.161 149.016 150.165C152.775 144.237 158.281 139.552 165.483 135.437L168.456 140.64C159.899 145.531 154.222 151.088 151.312 159.019H160.975C179.004 159.019 190.561 147.111 190.939 124.215C186.826 124.614 183.005 124.359 178.29 123.652C174.843 123.133 174.166 123.052 172.964 123.052Z" fill="white" fill-opacity="0.03"/>
<path d="M199.244 77.9917V83.9862C199.244 112.841 183.14 125.948 163.277 125.948H152.016C151.528 128.681 151.288 131.663 151.288 134.939H145.293C145.293 130.854 145.641 127.147 146.331 123.754C145.641 119.875 145.293 114.612 145.293 107.964C145.293 91.4104 158.712 77.9917 175.266 77.9917C181.26 77.9917 187.255 80.9889 199.244 77.9917ZM175.266 83.9862C162.024 83.9862 151.288 94.7223 151.288 107.964C151.288 109.049 151.297 110.095 151.318 111.099C155.076 105.171 160.582 100.486 167.785 96.3708L170.758 101.574C162.201 106.466 156.524 112.022 153.614 119.953H163.277C181.305 119.953 192.863 108.045 193.24 85.1491C189.128 85.5478 185.307 85.293 180.592 84.5856C177.145 84.0671 176.468 83.9862 175.266 83.9862Z" fill="white" fill-opacity="0.03"/>
<path d="M199.244 174.992V180.986C199.244 209.841 183.14 222.948 163.277 222.948H152.016C151.528 225.681 151.288 228.663 151.288 231.939H145.293C145.293 227.854 145.641 224.147 146.331 220.754C145.641 216.875 145.293 211.612 145.293 204.964C145.293 188.41 158.712 174.992 175.266 174.992C181.26 174.992 187.255 177.989 199.244 174.992ZM175.266 180.986C162.024 180.986 151.288 191.722 151.288 204.964C151.288 206.049 151.297 207.095 151.318 208.099C155.076 202.171 160.582 197.486 167.785 193.371L170.758 198.574C162.201 203.466 156.524 209.022 153.614 216.953H163.277C181.305 216.953 192.863 205.045 193.24 182.149C189.128 182.548 185.307 182.293 180.592 181.586C177.145 181.067 176.468 180.986 175.266 180.986Z" fill="white" fill-opacity="0.03"/>
<path d="M136.942 144.058V150.052C136.942 178.907 120.838 192.014 100.975 192.014H89.7145C89.226 194.747 88.9862 197.729 88.9862 201.005H82.9917C82.9917 196.92 83.3394 193.212 84.0287 189.82C83.3394 185.941 82.9917 180.678 82.9917 174.03C82.9917 157.476 96.4104 144.058 112.964 144.058C118.959 144.058 124.953 147.055 136.942 144.058ZM112.964 150.052C99.7223 150.052 88.9862 160.788 88.9862 174.03C88.9862 175.115 88.9952 176.161 89.0162 177.165C92.7747 171.237 98.2807 166.552 105.483 162.437L108.456 167.64C99.8992 172.531 94.2224 178.088 91.3121 186.019H100.975C119.004 186.019 130.561 174.111 130.939 151.215C126.826 151.614 123.005 151.359 118.29 150.652C114.843 150.133 114.166 150.052 112.964 150.052Z" fill="white" fill-opacity="0.03"/>
<path d="M139.244 32.9917V38.9862C139.244 67.8407 123.14 80.9477 103.277 80.9477H92.0163C91.5277 83.6812 91.288 86.6634 91.288 89.9394H85.2935C85.2935 85.8542 85.6411 82.1466 86.3305 78.7537C85.6411 74.8753 85.2935 69.6121 85.2935 62.9642C85.2935 46.4104 98.7121 32.9917 115.266 32.9917C121.26 32.9917 127.255 35.9889 139.244 32.9917ZM115.266 38.9862C102.024 38.9862 91.288 49.7223 91.288 62.9642C91.288 64.0492 91.2969 65.0952 91.3179 66.0993C95.0765 60.1707 100.582 55.486 107.785 51.3708L110.758 56.5741C102.201 61.4656 96.5241 67.0225 93.6138 74.9532H103.277C121.305 74.9532 132.863 63.0451 133.24 40.1491C129.128 40.5478 125.307 40.293 120.592 39.5856C117.145 39.0671 116.468 38.9862 115.266 38.9862Z" fill="white" fill-opacity="0.03"/>
<path d="M139.244 201.992V207.986C139.244 236.841 123.14 249.948 103.277 249.948H92.0163C91.5277 252.681 91.288 255.663 91.288 258.939H85.2935C85.2935 254.854 85.6411 251.147 86.3305 247.754C85.6411 243.875 85.2935 238.612 85.2935 231.964C85.2935 215.41 98.7121 201.992 115.266 201.992C121.26 201.992 127.255 204.989 139.244 201.992ZM115.266 207.986C102.024 207.986 91.288 218.722 91.288 231.964C91.288 233.049 91.2969 234.095 91.3179 235.099C95.0765 229.171 100.582 224.486 107.785 220.371L110.758 225.574C102.201 230.466 96.5241 236.022 93.6138 243.953H103.277C121.305 243.953 132.863 232.045 133.24 209.149C129.128 209.548 125.307 209.293 120.592 208.586C117.145 208.067 116.468 207.986 115.266 207.986Z" fill="white" fill-opacity="0.03"/>
<path d="M65.2439 86.5107V92.5052C65.2439 121.36 49.1397 134.467 29.2769 134.467H18.0163C17.5277 137.2 17.288 140.182 17.288 143.458H11.2935C11.2935 139.373 11.6411 135.666 12.3305 132.273C11.6411 128.394 11.2935 123.131 11.2935 116.483C11.2935 99.9294 24.7121 86.5107 41.2659 86.5107C47.2604 86.5107 53.2549 89.508 65.2439 86.5107ZM41.2659 92.5052C28.0241 92.5052 17.288 103.241 17.288 116.483C17.288 117.568 17.2969 118.614 17.3179 119.618C21.0765 113.69 26.5824 109.005 33.7848 104.89L36.7581 110.093C28.2009 114.985 22.5241 120.542 19.6138 128.472H29.2769C47.3054 128.472 58.8628 116.564 59.2404 93.6682C55.1282 94.0668 51.3067 93.812 46.5921 93.1047C43.1452 92.5862 42.4678 92.5052 41.2659 92.5052Z" fill="white" fill-opacity="0.03"/>
<path d="M62.9422 144.058V150.052C62.9422 178.907 46.838 192.014 26.9752 192.014H15.7145C15.226 194.747 14.9862 197.729 14.9862 201.005H8.9917C8.9917 196.92 9.33938 193.212 10.0287 189.82C9.33938 185.941 8.9917 180.678 8.9917 174.03C8.9917 157.476 22.4104 144.058 38.9642 144.058C44.9587 144.058 50.9532 147.055 62.9422 144.058ZM38.9642 150.052C25.7223 150.052 14.9862 160.788 14.9862 174.03C14.9862 175.115 14.9952 176.161 15.0162 177.165C18.7747 171.237 24.2807 166.552 31.4831 162.437L34.4563 167.64C25.8992 172.531 20.2224 178.088 17.3121 186.019H26.9752C45.0036 186.019 56.561 174.111 56.9387 151.215C52.8265 151.614 49.005 151.359 44.2903 150.652C40.8435 150.133 40.1661 150.052 38.9642 150.052Z" fill="white" fill-opacity="0.03"/>
<path d="M65.2439 32.9917V38.9862C65.2439 67.8407 49.1397 80.9477 29.2769 80.9477H18.0163C17.5277 83.6812 17.288 86.6634 17.288 89.9394H11.2935C11.2935 85.8542 11.6411 82.1466 12.3305 78.7537C11.6411 74.8753 11.2935 69.6121 11.2935 62.9642C11.2935 46.4104 24.7121 32.9917 41.2659 32.9917C47.2604 32.9917 53.2549 35.9889 65.2439 32.9917ZM41.2659 38.9862C28.0241 38.9862 17.288 49.7223 17.288 62.9642C17.288 64.0492 17.2969 65.0952 17.3179 66.0993C21.0765 60.1707 26.5824 55.486 33.7848 51.3708L36.7581 56.5741C28.2009 61.4656 22.5241 67.0225 19.6138 74.9532H29.2769C47.3054 74.9532 58.8628 63.0451 59.2404 40.1491C55.1282 40.5478 51.3067 40.293 46.5921 39.5856C43.1452 39.0671 42.4678 38.9862 41.2659 38.9862Z" fill="white" fill-opacity="0.03"/>
<path d="M65.2439 201.992V207.986C65.2439 236.841 49.1397 249.948 29.2769 249.948H18.0163C17.5277 252.681 17.288 255.663 17.288 258.939H11.2935C11.2935 254.854 11.6411 251.147 12.3305 247.754C11.6411 243.875 11.2935 238.612 11.2935 231.964C11.2935 215.41 24.7121 201.992 41.2659 201.992C47.2604 201.992 53.2549 204.989 65.2439 201.992ZM41.2659 207.986C28.0241 207.986 17.288 218.722 17.288 231.964C17.288 233.049 17.2969 234.095 17.3179 235.099C21.0765 229.171 26.5824 224.486 33.7848 220.371L36.7581 225.574C28.2009 230.466 22.5241 236.022 19.6138 243.953H29.2769C47.3054 243.953 58.8628 232.045 59.2404 209.149C55.1282 209.548 51.3067 209.293 46.5921 208.586C43.1452 208.067 42.4678 207.986 41.2659 207.986Z" fill="white" fill-opacity="0.03"/>
</svg>
